<!DOCTYPE svg PUBLIC "-//W3C//DTD SVG 1.1//EN" "http://www.w3.org/Graphics/SVG/1.1/DTD/svg11.dtd">
<!-- Uploaded to: SVG Repo, www.svgrepo.com, Transformed by: SVG Repo Mixer Tools -->
<svg version="1.1" id="Layer_1" xmlns="http://www.w3.org/2000/svg" xmlns:xlink="http://www.w3.org/1999/xlink" viewBox="0 0 390.206 390.206" xml:space="preserve" width="800px" height="800px" fill="#000000">
<g id="SVGRepo_bgCarrier" stroke-width="0"/>
<g id="SVGRepo_tracerCarrier" stroke-linecap="round" stroke-linejoin="round"/>
<g id="SVGRepo_iconCarrier"> <polygon style="fill:#ffea00;" points="129.773,315.41 105.336,368.549 285.312,368.549 260.876,315.41 "/> <g> <path style="fill:#FFFFFF;" d="M21.878,282.893c0,5.947,4.848,10.861,10.861,10.861H357.91c5.947,0,10.861-4.848,10.861-10.861 v-14.61H21.878V282.893z"/> <path style="fill:#FFFFFF;" d="M368.771,32.517c0-5.947-4.848-10.861-10.861-10.861H32.738c-5.947,0-10.861,4.848-10.861,10.861 v214.109h346.828V32.517H368.771z"/> </g> <path style="fill:#1969b3;" d="M357.91,0H32.738C14.831,0,0.221,14.61,0.221,32.517v250.376c0,17.907,14.61,32.517,32.517,32.517 h73.18l-27.087,59.604c-3.232,5.43,1.616,15.192,9.762,15.192H302.12l0,0c9.244,0,13.576-10.279,9.244-16.808l-27.087-57.988h73.18 c17.907,0,32.517-14.61,32.517-32.517V32.517C390.427,14.61,375.817,0,357.91,0z M368.771,282.893 c0,5.947-4.848,10.861-10.861,10.861H32.738c-5.947,0-10.861-4.848-10.861-10.861v-14.61h346.828v14.61H368.771z M105.336,368.549 l24.372-53.139h130.586l24.372,53.139H105.336z M21.878,32.517c0-5.947,4.848-10.861,10.861-10.861H357.91 c5.947,0,10.861,4.848,10.861,10.861v214.109H21.878V32.517z"/> <rect x="43.34" y="43.378" style="fill:#56ACE0;" width="303.515" height="181.527"/> <rect x="107.534" y="64.517" style="fill:#FFFFFF;" width="24.954" height="24.954"/> <path style="fill:#1969b3;" d="M142.767,42.796h-46.61c-5.947,0-10.861,4.848-10.861,10.861v46.61 c0,5.947,4.848,10.861,10.861,10.861h46.61c5.947,0,10.861-4.848,10.861-10.861v-46.61 C153.563,47.709,148.714,42.796,142.767,42.796z M131.906,88.889h-24.954V63.935h24.954V88.889z"/> <rect x="107.534" y="168.533" style="fill:#FFFFFF;" width="24.954" height="24.954"/> <g> <path style="fill:#1969b3;" d="M142.767,146.877h-46.61c-5.947,0-10.861,4.848-10.861,10.861v46.61 c0,5.947,4.848,10.861,10.861,10.861h46.61c5.947,0,10.861-4.848,10.861-10.861v-46.61 C153.563,151.725,148.714,146.877,142.767,146.877z M131.906,193.487h-24.954v-24.954h24.954V193.487z"/> <path style="fill:#1969b3;" d="M293.975,42.796h-89.406c-5.947,0-10.861,4.848-10.861,10.861s4.848,10.861,10.861,10.861h89.406 c5.947,0,10.861-4.848,10.861-10.861S299.922,42.796,293.975,42.796z"/> <path style="fill:#1969b3;" d="M204.569,110.545h56.889c5.947,0,10.861-4.848,10.861-10.861c0-5.947-4.849-10.861-10.861-10.861 h-56.889c-5.947,0-10.861,4.848-10.861,10.861S198.557,110.545,204.569,110.545z"/> <path style="fill:#1969b3;" d="M293.975,146.877h-89.406c-5.947,0-10.861,4.848-10.861,10.861s4.848,10.861,10.861,10.861h89.406 c5.947,0,10.861-4.848,10.861-10.861S299.922,146.877,293.975,146.877z"/> <path style="fill:#1969b3;" d="M261.458,193.487h-56.889c-5.947,0-10.861,4.848-10.861,10.861s4.848,10.796,10.861,10.796h56.889 c5.947,0,10.861-4.848,10.861-10.861C272.253,198.335,267.405,193.487,261.458,193.487z"/> </g> </g>
</svg>